<svg id="visual" viewBox="0 0 900 600" width="900" height="600" xmlns="http://www.w3.org/2000/svg" xmlns:xlink="http://www.w3.org/1999/xlink" version="1.1"><path d="M0 61L8.8 58C17.7 55 35.3 49 53 53C70.7 57 88.3 71 106 74C123.7 77 141.3 69 159 69C176.7 69 194.3 77 212 71C229.7 65 247.3 45 265 37C282.7 29 300.3 33 318 33C335.7 33 353.3 29 371 34C388.7 39 406.3 53 423.8 58C441.3 63 458.7 59 476.2 55C493.7 51 511.3 47 529 46C546.7 45 564.3 47 582 50C599.7 53 617.3 57 635 61C652.7 65 670.3 69 688 69C705.7 69 723.3 65 741 56C758.7 47 776.3 33 794 30C811.7 27 829.3 35 847 36C864.7 37 882.3 31 891.2 28L900 25L900 0L891.2 0C882.3 0 864.7 0 847 0C829.3 0 811.7 0 794 0C776.3 0 758.7 0 741 0C723.3 0 705.7 0 688 0C670.3 0 652.7 0 635 0C617.3 0 599.7 0 582 0C564.3 0 546.7 0 529 0C511.3 0 493.7 0 476.2 0C458.7 0 441.3 0 423.8 0C406.3 0 388.7 0 371 0C353.3 0 335.7 0 318 0C300.3 0 282.7 0 265 0C247.3 0 229.7 0 212 0C194.3 0 176.7 0 159 0C141.3 0 123.7 0 106 0C88.3 0 70.7 0 53 0C35.3 0 17.7 0 8.8 0L0 0Z" fill="#fffadc"></path><path d="M0 115L8.8 106C17.7 97 35.3 79 53 76C70.7 73 88.3 85 106 88C123.7 91 141.3 85 159 90C176.7 95 194.3 111 212 112C229.7 113 247.3 99 265 92C282.7 85 300.3 85 318 82C335.7 79 353.3 73 371 80C388.7 87 406.3 107 423.8 110C441.3 113 458.7 99 476.2 90C493.7 81 511.3 77 529 75C546.7 73 564.3 73 582 75C599.7 77 617.3 81 635 88C652.7 95 670.3 105 688 108C705.7 111 723.3 107 741 99C758.7 91 776.3 79 794 73C811.7 67 829.3 67 847 63C864.7 59 882.3 51 891.2 47L900 43L900 23L891.2 26C882.3 29 864.7 35 847 34C829.3 33 811.7 25 794 28C776.3 31 758.7 45 741 54C723.3 63 705.7 67 688 67C670.3 67 652.7 63 635 59C617.3 55 599.7 51 582 48C564.3 45 546.7 43 529 44C511.3 45 493.7 49 476.2 53C458.7 57 441.3 61 423.8 56C406.3 51 388.7 37 371 32C353.3 27 335.7 31 318 31C300.3 31 282.7 27 265 35C247.3 43 229.7 63 212 69C194.3 75 176.7 67 159 67C141.3 67 123.7 75 106 72C88.3 69 70.7 55 53 51C35.3 47 17.7 53 8.8 56L0 59Z" fill="#f9f5c1"></path><path d="M0 169L8.8 156C17.7 143 35.3 117 53 109C70.7 101 88.3 111 106 113C123.7 115 141.3 109 159 120C176.7 131 194.3 159 212 166C229.7 173 247.3 159 265 147C282.7 135 300.3 125 318 123C335.7 121 353.3 127 371 139C388.7 151 406.3 169 423.8 171C441.3 173 458.7 159 476.2 143C493.7 127 511.3 109 529 102C546.7 95 564.3 99 582 109C599.7 119 617.3 135 635 140C652.7 145 670.3 139 688 142C705.7 145 723.3 157 741 154C758.7 151 776.3 133 794 125C811.7 117 829.3 119 847 117C864.7 115 882.3 109 891.2 106L900 103L900 41L891.2 45C882.3 49 864.7 57 847 61C829.3 65 811.7 65 794 71C776.3 77 758.7 89 741 97C723.3 105 705.7 109 688 106C670.3 103 652.7 93 635 86C617.3 79 599.7 75 582 73C564.3 71 546.7 71 529 73C511.3 75 493.7 79 476.2 88C458.7 97 441.3 111 423.8 108C406.3 105 388.7 85 371 78C353.3 71 335.7 77 318 80C300.3 83 282.7 83 265 90C247.3 97 229.7 111 212 110C194.3 109 176.7 93 159 88C141.3 83 123.7 89 106 86C88.3 83 70.7 71 53 74C35.3 77 17.7 95 8.8 104L0 113Z" fill="#f1f0a7"></path><path d="M0 253L8.8 267C17.7 281 35.3 309 53 296C70.7 283 88.3 229 106 212C123.7 195 141.3 215 159 228C176.7 241 194.3 247 212 247C229.7 247 247.3 241 265 249C282.7 257 300.3 279 318 274C335.7 269 353.3 237 371 242C388.7 247 406.3 289 423.8 293C441.3 297 458.7 263 476.2 231C493.7 199 511.3 169 529 170C546.7 171 564.3 203 582 220C599.7 237 617.3 239 635 242C652.7 245 670.3 249 688 247C705.7 245 723.3 237 741 244C758.7 251 776.3 273 794 280C811.7 287 829.3 279 847 255C864.7 231 882.3 191 891.2 171L900 151L900 101L891.2 104C882.3 107 864.7 113 847 115C829.3 117 811.7 115 794 123C776.3 131 758.7 149 741 152C723.3 155 705.7 143 688 140C670.3 137 652.7 143 635 138C617.3 133 599.7 117 582 107C564.3 97 546.7 93 529 100C511.3 107 493.7 125 476.2 141C458.7 157 441.3 171 423.8 169C406.3 167 388.7 149 371 137C353.3 125 335.7 119 318 121C300.3 123 282.7 133 265 145C247.3 157 229.7 171 212 164C194.3 157 176.7 129 159 118C141.3 107 123.7 113 106 111C88.3 109 70.7 99 53 107C35.3 115 17.7 141 8.8 154L0 167Z" fill="#e6eb8d"></path><path d="M0 313L8.8 329C17.7 345 35.3 377 53 376C70.7 375 88.3 341 106 321C123.7 301 141.3 295 159 295C176.7 295 194.3 301 212 307C229.7 313 247.3 319 265 328C282.7 337 300.3 349 318 346C335.7 343 353.3 325 371 337C388.7 349 406.3 391 423.8 392C441.3 393 458.7 353 476.2 318C493.7 283 511.3 253 529 261C546.7 269 564.3 315 582 327C599.7 339 617.3 317 635 318C652.7 319 670.3 343 688 340C705.7 337 723.3 307 741 305C758.7 303 776.3 329 794 350C811.7 371 829.3 387 847 367C864.7 347 882.3 291 891.2 263L900 235L900 149L891.2 169C882.3 189 864.7 229 847 253C829.3 277 811.7 285 794 278C776.3 271 758.7 249 741 242C723.3 235 705.7 243 688 245C670.3 247 652.7 243 635 240C617.3 237 599.7 235 582 218C564.3 201 546.7 169 529 168C511.3 167 493.7 197 476.2 229C458.7 261 441.3 295 423.8 291C406.3 287 388.7 245 371 240C353.3 235 335.7 267 318 272C300.3 277 282.7 255 265 247C247.3 239 229.7 245 212 245C194.3 245 176.7 239 159 226C141.3 213 123.7 193 106 210C88.3 227 70.7 281 53 294C35.3 307 17.7 279 8.8 265L0 251Z" fill="#d9e773"></path><path d="M0 343L8.8 360C17.7 377 35.3 411 53 422C70.7 433 88.3 421 106 413C123.7 405 141.3 401 159 395C176.7 389 194.3 381 212 385C229.7 389 247.3 405 265 414C282.7 423 300.3 425 318 411C335.7 397 353.3 367 371 372C388.7 377 406.3 417 423.8 420C441.3 423 458.7 389 476.2 367C493.7 345 511.3 335 529 344C546.7 353 564.3 381 582 394C599.7 407 617.3 405 635 409C652.7 413 670.3 423 688 413C705.7 403 723.3 373 741 368C758.7 363 776.3 383 794 405C811.7 427 829.3 451 847 441C864.7 431 882.3 387 891.2 365L900 343L900 233L891.2 261C882.3 289 864.7 345 847 365C829.3 385 811.7 369 794 348C776.3 327 758.7 301 741 303C723.3 305 705.7 335 688 338C670.3 341 652.7 317 635 316C617.3 315 599.7 337 582 325C564.3 313 546.7 267 529 259C511.3 251 493.7 281 476.2 316C458.7 351 441.3 391 423.8 390C406.3 389 388.7 347 371 335C353.3 323 335.7 341 318 344C300.3 347 282.7 335 265 326C247.3 317 229.7 311 212 305C194.3 299 176.7 293 159 293C141.3 293 123.7 299 106 319C88.3 339 70.7 373 53 374C35.3 375 17.7 343 8.8 327L0 311Z" fill="#cae458"></path><path d="M0 583L8.8 581C17.7 579 35.3 575 53 575C70.7 575 88.3 579 106 574C123.7 569 141.3 555 159 553C176.7 551 194.3 561 212 560C229.7 559 247.3 547 265 540C282.7 533 300.3 531 318 536C335.7 541 353.3 553 371 560C388.7 567 406.3 569 423.8 564C441.3 559 458.7 547 476.2 542C493.7 537 511.3 539 529 545C546.7 551 564.3 561 582 568C599.7 575 617.3 579 635 575C652.7 571 670.3 559 688 559C705.7 559 723.3 571 741 574C758.7 577 776.3 571 794 569C811.7 567 829.3 569 847 568C864.7 567 882.3 563 891.2 561L900 559L900 341L891.2 363C882.3 385 864.7 429 847 439C829.3 449 811.7 425 794 403C776.3 381 758.7 361 741 366C723.3 371 705.7 401 688 411C670.3 421 652.7 411 635 407C617.3 403 599.7 405 582 392C564.3 379 546.7 351 529 342C511.3 333 493.7 343 476.2 365C458.7 387 441.3 421 423.8 418C406.3 415 388.7 375 371 370C353.3 365 335.7 395 318 409C300.3 423 282.7 421 265 412C247.3 403 229.7 387 212 383C194.3 379 176.7 387 159 393C141.3 399 123.7 403 106 411C88.3 419 70.7 431 53 420C35.3 409 17.7 375 8.8 358L0 341Z" fill="#b8e039"></path><path d="M0 601L8.8 601C17.7 601 35.3 601 53 601C70.7 601 88.3 601 106 601C123.7 601 141.3 601 159 601C176.7 601 194.3 601 212 601C229.7 601 247.3 601 265 601C282.7 601 300.3 601 318 601C335.7 601 353.3 601 371 601C388.7 601 406.3 601 423.8 601C441.3 601 458.7 601 476.2 601C493.7 601 511.3 601 529 601C546.7 601 564.3 601 582 601C599.7 601 617.3 601 635 601C652.7 601 670.3 601 688 601C705.7 601 723.3 601 741 601C758.7 601 776.3 601 794 601C811.7 601 829.3 601 847 601C864.7 601 882.3 601 891.2 601L900 601L900 557L891.2 559C882.3 561 864.7 565 847 566C829.3 567 811.7 565 794 567C776.3 569 758.7 575 741 572C723.3 569 705.7 557 688 557C670.3 557 652.7 569 635 573C617.3 577 599.7 573 582 566C564.3 559 546.7 549 529 543C511.3 537 493.7 535 476.2 540C458.7 545 441.3 557 423.8 562C406.3 567 388.7 565 371 558C353.3 551 335.7 539 318 534C300.3 529 282.7 531 265 538C247.3 545 229.7 557 212 558C194.3 559 176.7 549 159 551C141.3 553 123.7 567 106 572C88.3 577 70.7 573 53 573C35.3 573 17.7 577 8.8 579L0 581Z" fill="#a4dd00"></path></svg>