<svg xml:space="preserve" viewBox="4.7098108108108105 23.521 90.27027027027027 71.55" y="0px" x="0px" version="1.1" xmlns:xlink="http://www.w3.org/1999/xlink" xmlns="http://www.w3.org/2000/svg" style="max-height: 500px" width="90.27027027027027" height="71.55"><path d="M92.813,67.146c0,0-4.239-7.231-13.062-1.646c-3.541,2.243-7.857,5.968-12.103,10.011  c5.662-6.441,11.216-13.39,14.213-18.861c6.064-11.067-2.54-16.444-2.54-16.444s-8.688-5.041-14.75,6.027  c-3.559,6.497-7.016,17.307-9.704,27.044c2.555-11.531,5.092-25.239,5.092-34.212c0-14.252-10.292-14.399-10.292-14.399  s-10.296,0.147-10.296,14.399c0,8.964,2.532,22.652,5.085,34.175c-2.687-9.728-6.14-20.518-9.694-27.007  c-6.063-11.067-14.75-6.027-14.75-6.027s-8.605,5.377-2.541,16.444c2.997,5.472,8.552,12.42,14.213,18.86  c-4.245-4.042-8.561-7.767-12.102-10.01c-8.823-5.585-13.062,1.646-13.062,1.646s-4.107,7.232,4.712,12.818  c11.185,7.083,38.434,14.464,38.434,14.464s0.002-0.007,0.002-0.008c0,0.001-0.002,0.008-0.002,0.008s27.249-7.381,38.435-14.464  C96.922,74.378,92.813,67.146,92.813,67.146z"/><text fill="#000000" font-family="Arbeit Regular, Helvetica, Arial-Unicode, Arial, Sans-serif" font-weight="bold" font-size="5.0" y="117.649" x="0.149">Created by Rica Hollmann</text><text fill="#000000" font-family="Arbeit Regular, Helvetica, Arial-Unicode, Arial, Sans-serif" font-weight="bold" font-size="5.0" y="122.649" x="0.149">from Noun Project</text></svg>