<svg xml:space="preserve" viewBox="0 25.69675 103.49999999999999 49" y="0px" x="0px" version="1.1" xmlns:xlink="http://www.w3.org/1999/xlink" xmlns="http://www.w3.org/2000/svg" style="max-height: 500px" width="103.49999999999999" height="49"><path d="M98.23,66.758c0.938-1.453,1.488-3.189,1.488-5.057c0-4.135-2.675-7.635-6.361-8.814c-0.926-2.066-2.815-3.656-5.143-4.286  c0.006-0.125,0.02-0.247,0.02-0.372c0-4.395-3.512-7.956-7.844-7.956c-1.781,0-3.42,0.61-4.736,1.625  c-0.903-2.364-3.192-3.985-5.469-3.985c-0.113,0,0.11-0.008,0,0c-1.08-6.074-9.578-10.805-19.907-10.805  c-10.117,0-18.46,4.542-19.813,10.438c-5.3,1.729-9.044,4.979-9.647,8.786C14.103,46.694,8.823,50.33,8.823,54.77  c0,0.15,0.023,0.297,0.035,0.445c-2.675,1.463-4.377,3.637-4.377,6.066c0,0.201-0.053,0.42-0.03,0.618  C1.98,62.667,0.28,64.746,0.28,67.227c0,3.129,2.553,5.774,6.033,5.774C6.494,73.001,7,73.014,7,73l0,0h89l0,0  c2-0.264,3.661-1.863,3.661-3.607C99.661,68.336,99.136,67.398,98.23,66.758z"/><text font-family="'Helvetica Neue', Helvetica, Arial-Unicode, Arial, Sans-serif" font-weight="bold" font-size="5px" fill="#000000" y="115" x="0">Created by Matej Design</text><text font-family="'Helvetica Neue', Helvetica, Arial-Unicode, Arial, Sans-serif" font-weight="bold" font-size="5px" fill="#000000" y="120" x="0">from the Noun Project</text></svg>