<svg y="0px" x="0px" viewBox="9.352500000000001 22.86 101.39999999999999 73.8" xmlns="http://www.w3.org/2000/svg" style="max-height: 500px" width="101.39999999999999" height="73.8"><title>Bush</title><path d="M107.22,58.54a25.08,25.08,0,0,0-7.4-8.67A16.84,16.84,0,0,0,100,47.5,17.49,17.49,0,0,0,71.59,33.83,20,20,0,0,0,35,45a25,25,0,1,0,0,50H85a25,25,0,0,0,22.22-36.46ZM50.83,72.21c2.67,4.1-5.33,4.1-2.66,0-2.67,4.1-5.14-3.51-.83-2.54C43,68.7,49.5,64,49.5,68.11c0-4.11,6.47.59,2.16,1.56C56,68.7,53.5,76.31,50.83,72.21ZM76.69,57.06c2.37,3.65-4.75,3.65-2.38,0-2.37,3.65-4.56-3.12-.73-2.25-3.83-.87,1.92-5,1.92-1.4,0-3.65,5.75.53,1.92,1.4C81.25,53.94,79.06,60.71,76.69,57.06ZM87.26,72.64c3.53,5.43-7,5.43-3.52,0-3.53,5.43-6.81-4.64-1.1-3.35C76.93,68,85.5,61.78,85.5,67.21c0-5.43,8.57.79,2.86,2.08C94.07,68,90.79,78.07,87.26,72.64Z"/><text font-family="'Helvetica Neue', Helvetica, Arial-Unicode, Arial, Sans-serif" font-weight="bold" font-size="5px" fill="#000000" y="135" x="0">Created by Jae Deasigner</text><text font-family="'Helvetica Neue', Helvetica, Arial-Unicode, Arial, Sans-serif" font-weight="bold" font-size="5px" fill="#000000" y="140" x="0">from the Noun Project</text></svg>